HIERARCHY
ROOT Hips
{
	OFFSET 0.000000 0.000000 0.000000
	CHANNELS 6 Xposition Yposition Zposition Zrotation Yrotation Xrotation 
	JOINT LowerBack
	{
		OFFSET 0.000000 0.000000 0.000000
		CHANNELS 3 Zrotation Yrotation Xrotation
		JOINT Spine
		{
			OFFSET 0.028270 2.035590 -0.193380
			CHANNELS 3 Zrotation Yrotation Xrotation
			JOINT Spine1
			{
				OFFSET 0.056720 2.048850 -0.042750
				CHANNELS 3 Zrotation Yrotation Xrotation
				JOINT Neck
				{
					OFFSET 0.000000 0.000000 0.000000
					CHANNELS 3 Zrotation Yrotation Xrotation
					JOINT Neck1
					{
						OFFSET -0.054170 1.746240 0.172020
						CHANNELS 3 Zrotation Yrotation Xrotation
						JOINT Head
						{
							OFFSET 0.104070 1.761360 -0.123970
							CHANNELS 3 Zrotation Yrotation Xrotation
							End Site
							{
								OFFSET 0.000000 0.000000 0.000000
							}
						}
					}
				}
				JOINT LeftShoulder
				{
					OFFSET 0.000000 0.000000 0.000000
					CHANNELS 3 Zrotation Yrotation Xrotation
					JOINT LeftArm
					{
						OFFSET 3.362410 1.200890 -0.311210
						CHANNELS 3 Zrotation Yrotation Xrotation
						JOINT LeftForeArm
						{
							OFFSET 4.983000 -0.000000 -0.000000
							CHANNELS 3 Zrotation Yrotation Xrotation
							JOINT LeftHand
							{
								OFFSET 3.483560 -0.000000 -0.000000
								CHANNELS 3 Zrotation Yrotation Xrotation
								JOINT LeftFingerBase
								{
									OFFSET 0.000000 0.000000 0.000000
									CHANNELS 3 Zrotation Yrotation Xrotation
									JOINT LeftHandIndex1
									{
										OFFSET 0.715260 -0.000000 -0.000000
										CHANNELS 3 Zrotation Yrotation Xrotation
										End Site
										{
											OFFSET 0.000000 0.000000 0.000000
										}
									}
								}
								JOINT LThumb
								{
									OFFSET 0.000000 0.000000 0.000000
									CHANNELS 3 Zrotation Yrotation Xrotation
									End Site
									{
										OFFSET 0.000000 0.000000 0.000000
									}
								}
							}
						}
					}
				}
				JOINT RightShoulder
				{
					OFFSET 0.000000 0.000000 0.000000
					CHANNELS 3 Zrotation Yrotation Xrotation
					JOINT RightArm
					{
						OFFSET -3.136600 1.374050 -0.404650
						CHANNELS 3 Zrotation Yrotation Xrotation
						JOINT RightForeArm
						{
							OFFSET -5.241900 -0.000000 -0.000000
							CHANNELS 3 Zrotation Yrotation Xrotation
							JOINT RightHand
							{
								OFFSET -3.444170 -0.000000 -0.000000
								CHANNELS 3 Zrotation Yrotation Xrotation
								JOINT RightFingerBase
								{
									OFFSET 0.000000 0.000000 0.000000
									CHANNELS 3 Zrotation Yrotation Xrotation
									JOINT RightHandIndex1
									{
										OFFSET -0.622530 -0.000000 -0.000000
										CHANNELS 3 Zrotation Yrotation Xrotation
										End Site
										{
											OFFSET 0.000000 0.000000 0.000000
										}
									}
								}
								JOINT RThumb
								{
									OFFSET 0.000000 0.000000 0.000000
									CHANNELS 3 Zrotation Yrotation Xrotation
									End Site
									{
										OFFSET 0.000000 0.000000 0.000000
									}
								}
							}
						}
					}
				}
			}
		}
	}
}
}
MOTION
Frames: 18
Frame Time: 0.008333
3.314988 16.568136 -1.372447 -176.920549 79.763856 -173.163973 1.276354 -2.737299 1.224259 -0.190961 -2.778428 -2.026262 -5.285931 -2.772740 3.300057 8.795270 -14.750771 -12.106332 -1.796598 -0.068730 -1.216015 0.000000 0.000000 0.000000 0.309735 22.938711 0.861104 -71.886583 8.098863 1.372943 -2.623873 -40.037180 -0.002497 11.237981 -1.493265 -0.153081 -0.185801 0.047936 -0.000000 0.000000 0.000000 0.000000 0.000000 0.000000 0.000000 10.212747 -11.776799 0.759122 79.127833 -6.389276 -29.278298 3.918379 6.966004 0.006811 -3.887295 4.405852 -0.158106 0.153875 -0.082774 -0.000000 0.000000 0.000000 0.000000 0.000000 0.000000 0.000000 
3.521125 16.652231 -1.435213 -173.836237 79.022369 -169.987820 2.228514 -2.905849 0.772080 -0.001649 -3.020108 -2.093517 -5.284572 -3.014968 3.356136 8.703516 -15.232343 -12.088674 -1.831865 -0.072750 -1.200902 0.000000 0.000000 0.000000 0.796475 22.725301 0.686268 -70.755265 8.063768 1.966463 -2.442013 -43.369493 -0.004351 12.222751 -2.129598 -0.237732 -0.198490 0.066231 -0.000000 0.000000 0.000000 0.000000 0.000000 0.000000 0.000000 10.452616 -12.421181 0.776738 79.844582 -7.732237 -28.595376 4.124118 6.846800 0.004088 -2.146381 2.333788 -0.047855 0.148607 -0.065537 -0.000000 0.000000 0.000000 0.000000 0.000000 0.000000 0.000000 
3.729633 16.741326 -1.497786 -171.293708 78.145511 -167.366079 3.135288 -3.107037 0.292902 0.182957 -3.295760 -2.164782 -5.288786 -3.289773 3.416601 8.658055 -15.789348 -12.076256 -1.867242 -0.076836 -1.186625 0.000000 0.000000 0.000000 1.394638 22.456915 0.511659 -69.614484 8.182012 2.558518 -2.257327 -46.693747 -0.007358 12.973141 -2.494766 -0.296688 -0.210221 0.085030 -0.000000 0.000000 0.000000 0.000000 0.000000 0.000000 0.000000 10.754080 -13.144587 0.785485 80.445300 -9.087821 -27.653606 4.339188 7.004722 0.001376 -0.264495 0.485068 -0.001700 0.141912 -0.048737 -0.000000 0.000000 0.000000 0.000000 0.000000 0.000000 0.000000 
3.939407 16.834530 -1.558397 -169.388829 77.116256 -165.401170 3.955046 -3.350033 -0.197087 0.355585 -3.611141 -2.237228 -5.301604 -3.602836 3.479786 8.672030 -16.410734 -12.070377 -1.906806 -0.081283 -1.173837 0.000000 0.000000 0.000000 2.107519 22.119818 0.339125 -68.455121 8.416551 3.114201 -2.073915 -49.948538 -0.011388 13.496294 -2.611658 -0.325055 -0.220365 0.104000 -0.000000 0.000000 0.000000 0.000000 0.000000 0.000000 0.000000 11.146461 -13.939951 0.784258 80.924974 -10.425230 -26.585385 4.548072 7.365488 -0.001188 1.647039 -1.053319 -0.013339 0.134248 -0.033351 -0.000000 0.000000 0.000000 0.000000 0.000000 0.000000 0.000000 
4.149348 16.931211 -1.615572 -168.116177 75.933682 -164.094090 4.657588 -3.638649 -0.683142 0.510615 -3.967168 -2.308554 -5.325141 -3.955163 3.543001 8.754007 -17.085032 -12.071631 -1.953949 -0.086344 -1.162873 0.000000 0.000000 0.000000 2.926457 21.700972 0.169782 -67.269208 8.738346 3.598967 -1.895791 -53.090386 -0.016188 13.806847 -2.517684 -0.323340 -0.228308 0.122713 -0.000000 0.000000 0.000000 0.000000 0.000000 0.000000 0.000000 11.651500 -14.798442 0.772308 81.283763 -11.715275 -25.519910 4.736000 7.850175 -0.003448 3.466213 -2.233470 -0.064372 0.126178 -0.020113 -0.000000 0.000000 0.000000 0.000000 0.000000 0.000000 0.000000 
4.358657 17.030758 -1.668245 -167.410235 74.610934 -163.382026 5.218721 -3.971245 -1.152996 0.643063 -4.359704 -2.376012 -5.360009 -4.342771 3.607120 8.909037 -17.800821 -12.082522 -2.009914 -0.092042 -1.154583 0.000000 0.000000 0.000000 3.840615 21.212299 0.004494 -66.054850 9.097014 4.001953 -1.727599 -56.067681 -0.021428 13.930347 -2.262816 -0.296849 -0.233628 0.140804 -0.000000 0.000000 0.000000 0.000000 0.000000 0.000000 0.000000 12.280523 -15.710481 0.747570 81.531019 -12.927635 -24.584310 4.891003 8.377004 -0.005241 5.077481 -3.044605 -0.131398 0.118219 -0.009477 -0.000000 0.000000 0.000000 0.000000 0.000000 0.000000 0.000000 
4.566703 17.132634 -1.715848 -167.164183 73.172118 -163.159561 5.627052 -4.341589 -1.595496 0.749974 -4.780813 -2.438187 -5.405216 -4.758003 3.668778 9.133199 -18.546027 -12.101705 -2.074719 -0.098367 -1.148675 0.000000 0.000000 0.000000 4.824675 20.645049 -0.156555 -64.811395 9.481593 4.298382 -1.571848 -58.868133 -0.026758 13.894950 -1.896593 -0.252888 -0.235991 0.157958 0.000000 0.000000 0.000000 0.000000 0.000000 0.000000 0.000000 13.025946 -16.664089 0.711413 81.685675 -14.037424 -23.891113 5.005000 8.863753 -0.006418 6.381712 -3.502507 -0.191815 0.110807 -0.001679 -0.000000 0.000000 0.000000 0.000000 0.000000 0.000000 0.000000 
4.773133 17.236172 -1.758226 -167.274095 71.646764 -163.319804 5.875778 -4.740082 -2.002620 0.828953 -5.219619 -2.493026 -5.458134 -5.190264 3.729259 9.418911 -19.305524 -12.129528 -2.146087 -0.105062 -1.145430 0.000000 0.000000 0.000000 5.862413 20.020884 -0.312947 -63.550138 9.853899 4.495620 -1.431303 -61.461391 -0.031878 13.739453 -1.473128 -0.200056 -0.235406 0.174103 -0.000000 0.000000 0.000000 0.000000 0.000000 0.000000 0.000000 13.868363 -17.643457 0.664047 81.776942 -15.027160 -23.546703 5.074610 9.243608 -0.006901 7.313948 -3.648101 -0.230024 0.104268 0.003279 -0.000000 0.000000 0.000000 0.000000 0.000000 0.000000 0.000000 
4.977766 17.340503 -1.795577 -167.641251 70.067541 -163.760226 5.968642 -5.154762 -2.367345 0.879466 -5.663608 -2.539308 -5.514754 -5.627375 3.787529 9.751855 -20.065005 -12.163805 -2.220524 -0.111807 -1.144441 0.000000 0.000000 0.000000 6.933262 19.349360 -0.464898 -62.285765 10.201525 4.595692 -1.306782 -63.843036 -0.036585 13.506029 -1.040079 -0.146257 -0.232092 0.189322 0.000000 0.000000 0.000000 0.000000 0.000000 0.000000 0.000000 14.773676 -18.632174 0.608794 81.839443 -15.888758 -23.615201 5.100277 9.469408 -0.006701 7.842956 -3.532098 -0.239523 0.098863 0.005589 -0.000000 0.000000 0.000000 0.000000 0.000000 0.000000 0.000000 
5.180517 17.444567 -1.828474 -168.183788 68.468209 -164.395328 5.915740 -5.572480 -2.683593 0.902077 -6.099569 -2.575960 -5.570354 -6.056474 3.842693 10.114234 -20.809125 -12.201546 -2.293705 -0.118216 -1.145123 0.000000 0.000000 0.000000 8.020260 18.644791 -0.612989 -61.038817 10.515148 4.610285 -1.198146 -66.015140 -0.040809 13.239886 -0.637849 -0.097589 -0.226525 0.203844 -0.000000 0.000000 0.000000 0.000000 0.000000 0.000000 0.000000 15.700372 -19.611472 0.550133 81.909809 -16.626997 -24.120200 5.085502 9.525130 -0.005922 7.976406 -3.211607 -0.221615 0.094772 0.005625 -0.000000 0.000000 0.000000 0.000000 0.000000 0.000000 0.000000 
5.381463 17.547065 -1.857791 -168.838166 66.882612 -165.158806 5.733475 -5.979707 -2.945079 0.898607 -6.514365 -2.601980 -5.619763 -6.464798 3.893736 10.486018 -21.525597 -12.239559 -2.360848 -0.123873 -1.146851 0.000000 0.000000 0.000000 9.107770 17.922565 -0.758241 -59.832209 10.791274 4.553638 -1.104376 -67.988761 -0.044591 12.984342 -0.297154 -0.057945 -0.219367 0.217976 0.000000 0.000000 0.000000 0.000000 0.000000 0.000000 0.000000 16.603588 -20.564595 0.493611 82.019710 -17.255871 -25.022587 5.035931 9.425480 -0.004741 7.754978 -2.742988 -0.183901 0.092092 0.003916 -0.000000 0.000000 0.000000 0.000000 0.000000 0.000000 0.000000 
5.580668 17.646610 -1.884619 -169.552249 65.343576 -165.998859 5.444408 -6.363214 -3.145693 0.871992 -6.895687 -2.616685 -5.658901 -6.840382 3.938909 10.846739 -22.198972 -12.274033 -2.418222 -0.128475 -1.148808 0.000000 0.000000 0.000000 10.181169 17.200571 -0.901437 -58.688820 11.029083 4.441914 -1.023946 -69.780626 -0.048072 12.776719 -0.036719 -0.029023 -0.211377 0.231994 -0.000000 0.000000 0.000000 0.000000 0.000000 0.000000 0.000000 17.441804 -21.469737 0.444769 82.197188 -17.801920 -26.249215 4.959065 9.216897 -0.003375 7.250727 -2.188118 -0.136886 0.090791 0.001065 -0.000000 0.000000 0.000000 0.000000 0.000000 0.000000 0.000000 
5.778113 17.741782 -1.910241 -170.278019 63.883016 -166.871759 5.079690 -6.710360 -3.278719 0.827208 -7.232490 -2.619460 -5.684027 -7.172494 3.976918 11.176410 -22.823639 -12.302949 -2.462005 -0.131707 -1.150614 0.000000 0.000000 0.000000 11.219951 16.497682 -1.043340 -57.627121 11.230246 4.287567 -0.955011 -71.414775 -0.051430 12.643744 0.137146 -0.010813 -0.203314 0.246090 -0.000000 0.000000 0.000000 0.000000 0.000000 0.000000 0.000000 18.176077 -22.314493 0.409075 82.457952 -18.286420 -27.655738 4.863917 8.954452 -0.002017 6.549922 -1.601852 -0.090170 0.090750 -0.002296 -0.000000 0.000000 0.000000 0.000000 0.000000 0.000000 0.000000 
5.973651 17.831384 -1.936067 -170.970932 62.531994 -167.739581 4.676395 -7.009550 -3.339683 0.770471 -7.515457 -2.610321 -5.693751 -7.451984 4.006562 11.457420 -23.390235 -12.324490 -2.490501 -0.133467 -1.151876 0.000000 0.000000 0.000000 12.200369 15.837766 -1.183351 -56.660598 11.392860 4.101438 -0.895958 -72.913642 -0.054825 12.599032 0.228389 -0.002210 -0.195860 0.260301 0.000000 0.000000 0.000000 0.000000 0.000000 0.000000 0.000000 18.777811 -23.081313 0.390125 82.810778 -18.731698 -29.098188 4.760665 8.699789 -0.000824 5.750211 -1.043821 -0.051156 0.091719 -0.005604 0.000000 0.000000 0.000000 0.000000 0.000000 0.000000 0.000000 
6.167206 17.914462 -1.963462 -171.590834 61.320693 -168.564465 4.275137 -7.250627 -3.332878 0.708945 -7.737368 -2.591096 -5.689458 -7.671637 4.027048 11.676457 -23.885866 -12.336901 -2.504398 -0.133907 -1.152091 0.000000 0.000000 0.000000 13.096906 15.246285 -1.319468 -55.795345 11.516442 3.891617 -0.845322 -74.298027 -0.058354 12.642734 0.249672 -0.001505 -0.189559 0.274482 0.000000 0.000000 0.000000 0.000000 0.000000 0.000000 0.000000 19.231454 -23.748208 0.389470 83.257181 -19.158629 -30.463282 4.659787 8.505859 0.000100 4.951334 -0.573496 -0.023846 0.093333 -0.008435 0.000000 0.000000 0.000000 0.000000 0.000000 0.000000 0.000000 
6.358540 17.990292 -1.993510 -172.104007 60.274719 -169.315203 3.914821 -7.426219 -3.264744 0.650039 -7.893730 -2.563768 -5.673321 -7.826856 4.039004 11.825087 -24.307088 -12.340450 -2.504733 -0.133190 -1.151241 0.000000 0.000000 0.000000 13.881835 14.747280 -1.448992 -55.030765 11.599907 3.661906 -0.801724 -75.585880 -0.062027 12.762100 0.219531 -0.006591 -0.184767 0.288356 0.000000 0.000000 0.000000 0.000000 0.000000 0.000000 0.000000 19.530296 -24.304655 0.406901 83.785386 -19.569905 -31.631092 4.570457 8.398183 0.000708 4.235210 -0.231168 -0.007840 0.095207 -0.010482 0.000000 0.000000 0.000000 0.000000 0.000000 0.000000 0.000000 
6.547517 18.058267 -2.026863 -172.494610 59.410058 -169.979819 3.622237 -7.533811 -3.139784 0.599177 -7.984044 -2.529468 -5.647889 -7.916954 4.043813 11.900790 -24.655276 -12.336356 -2.493174 -0.131513 -1.149547 0.000000 0.000000 0.000000 14.533347 14.359706 -1.568769 -54.362818 11.643669 3.412774 -0.763891 -76.789702 -0.065772 12.934418 0.159720 -0.015165 -0.181603 0.301572 0.000000 0.000000 0.000000 0.000000 0.000000 0.000000 0.000000 19.678537 -24.748169 0.440251 84.374950 -19.958243 -32.501363 4.499503 8.380680 0.000993 3.662766 -0.039844 -0.000738 0.096966 -0.011546 0.000000 0.000000 0.000000 0.000000 0.000000 0.000000 0.000000 
6.734129 18.117906 -2.063618 -172.765585 58.732917 -170.562812 3.408654 -7.575125 -2.962963 0.558756 -8.011009 -2.488967 -5.616558 -7.944383 4.042749 11.907219 -24.930084 -12.325226 -2.472639 -0.129178 -1.147048 0.000000 0.000000 0.000000 15.038843 14.095328 -1.675563 -53.784427 11.650992 3.144490 -0.730537 -77.915314 -0.069439 13.131584 0.091938 -0.024819 -0.179981 0.313719 0.000000 0.000000 0.000000 0.000000 0.000000 0.000000 0.000000 19.692332 -25.076899 0.485603 85.001724 -20.315975 -33.024490 4.451096 8.446819 0.000966 3.278260 -0.008752 0.000261 0.098260 -0.011552 0.000000 0.000000 0.000000 0.000000 0.000000 0.000000 0.000000 
